REM GENRE  Classical
REM DATE 1988
REM DISCID B40D2D0F
REM COMMENT "ExactAudioCopy v1.0b3"
PERFORMER "Johann Sebastian Bach"
TITLE "Johann Sebastian Bach: Organ Concertos BWV 592-596"
FILE "foo.wav" WAVE
  TRACK 01 AUDIO
    TITLE "Johann Sebastian Bach: Organ Concertos BWV 592-596"
    PERFORMER "Johann Sebastian Bach"
    INDEX 00 00:00:00
    INDEX 01 00:00:33
  TRACK 02 AUDIO
    TITLE "Johann Sebastian Bach: Organ Concertos BWV 592-596"
    PERFORMER "Johann Sebastian Bach"
    INDEX 01 01:09:50
  TRACK 03 AUDIO
    TITLE "Johann Sebastian Bach: Organ Concertos BWV 592-596"
    PERFORMER "Johann Sebastian Bach"
    INDEX 01 01:38:40
  TRACK 04 AUDIO
    TITLE "Johann Sebastian Bach: Organ Concertos BWV 592-596"
    PERFORMER "Johann Sebastian Bach"
    INDEX 00 05:10:25
    INDEX 01 05:11:55
  TRACK 05 AUDIO
    TITLE "Johann Sebastian Bach: Organ Concertos BWV 592-596"
    PERFORMER "Johann Sebastian Bach"
    INDEX 01 07:54:58
  TRACK 06 AUDIO
    TITLE "Johann Sebastian Bach: Organ Concertos BWV 592-596"
    PERFORMER "Johann Sebastian Bach"
    INDEX 00 11:00:33
    INDEX 01 11:04:20
  TRACK 07 AUDIO
    TITLE "Johann Sebastian Bach: Organ Concertos BWV 592-596"
    PERFORMER "Johann Sebastian Bach"
    INDEX 00 15:24:33
    INDEX 01 15:26:58
  TRACK 08 AUDIO
    TITLE "Johann Sebastian Bach: Organ Concertos BWV 592-596"
    PERFORMER "Johann Sebastian Bach"
    INDEX 00 19:28:63
    INDEX 01 19:29:58
  TRACK 09 AUDIO
    TITLE "Johann Sebastian Bach: Organ Concertos BWV 592-596"
    PERFORMER "Johann Sebastian Bach"
    INDEX 00 23:34:08
    INDEX 01 23:37:58
  TRACK 10 AUDIO
    TITLE "Johann Sebastian Bach: Organ Concertos BWV 592-596"
    PERFORMER "Johann Sebastian Bach"
    INDEX 00 30:58:58
    INDEX 01 30:59:70
  TRACK 11 AUDIO
    TITLE "Johann Sebastian Bach: Organ Concertos BWV 592-596"
    PERFORMER "Johann Sebastian Bach"
    INDEX 01 35:04:63
  TRACK 12 AUDIO
    TITLE "Johann Sebastian Bach: Organ Concertos BWV 592-596"
    PERFORMER "Johann Sebastian Bach"
    INDEX 00 44:00:15
    INDEX 01 44:06:45
  TRACK 13 AUDIO
    TITLE "Johann Sebastian Bach: Organ Concertos BWV 592-596"
    PERFORMER "Johann Sebastian Bach"
    INDEX 00 47:23:68
    INDEX 01 47:24:68
  TRACK 14 AUDIO
    TITLE "Johann Sebastian Bach: Organ Concertos BWV 592-596"
    PERFORMER "Johann Sebastian Bach"
    INDEX 01 50:04:20
  TRACK 15 AUDIO
    TITLE "Johann Sebastian Bach: Organ Concertos BWV 592-596"
    PERFORMER "Johann Sebastian Bach"
    INDEX 00 51:57:08
    INDEX 01 52:01:28
